<svg xmlns="http://www.w3.org/2000/svg" width="38" height="40" viewBox="0 0 38 40" fill="none">
    <path fill-rule="evenodd" clip-rule="evenodd" d="M26.3435 34.4687C29.625 34.4687 33.1869 35.5907 37.1279 39.0731C37.5226 39.4211 38.0484 38.9891 37.7043 38.5547C33.8295 33.6779 30.2484 32.7503 26.6756 31.9642C22.3051 31.0042 20.0572 28.5526 18.4905 25.8598C18.1788 25.3246 18.0392 25.4182 18.0116 26.107C17.9767 26.9494 18.0356 28.063 18.2245 29.1598C18.0477 29.1682 17.8708 29.1658 17.6927 29.1658C11.4409 29.1658 6.3728 24.1118 6.3728 17.8774C6.3728 11.6429 11.4409 6.58889 17.6927 6.58889C23.9445 6.58889 29.0125 11.6429 29.0125 17.8774C29.0125 18.3214 28.9909 18.7594 28.9403 19.189C28.1136 19.0402 26.4867 19.0234 25.3459 19.123C24.9163 19.159 24.9765 19.3594 25.3014 19.417C29.0438 20.0914 31.6142 22.405 32.2026 26.6014C32.2146 26.6974 32.3422 26.7262 32.3927 26.6434C33.9838 23.9951 34.8216 20.9646 34.8163 17.8774C34.8163 8.4441 27.151 0.800049 17.6927 0.800049C8.23438 0.800049 0.567871 8.4453 0.567871 17.8762C0.567871 27.3082 8.23438 34.9547 17.6915 34.9547C20.2016 34.9547 22.6902 34.4687 26.3435 34.4687ZM27.6191 28.2682C28.3796 28.9102 28.6118 29.6746 28.2087 30.2122C27.9849 30.5086 27.6215 30.6706 27.1858 30.6706C26.7587 30.6706 26.323 30.5134 26.021 30.2506C25.3279 29.647 25.1245 28.6666 25.577 28.111C25.7539 27.895 26.0415 27.775 26.3844 27.775C26.8032 27.775 27.2412 27.9502 27.6191 28.2682ZM31.1328 26.6362C31.2459 27.385 31.0089 27.6946 30.7706 27.6946C30.5107 27.6946 30.1846 27.391 29.7995 26.7934C29.4193 26.2018 29.2821 25.5238 29.4686 25.1818C29.5937 24.9538 29.8537 24.8566 30.1822 24.9802C30.8175 25.2202 31.0666 26.1898 31.1328 26.6362Z" fill="#E9832C"/>
</svg>
